<svg width="609" height="1203" viewBox="0 0 609 1203" fill="none" xmlns="http://www.w3.org/2000/svg">
<path d="M0.751953 1203H608.071V163H0.751953V1203Z" fill="#0B5587"/>
<path d="M566.539 108.049H42.284V163H566.539V108.049Z" fill="#0D65A1"/>
<path d="M495.731 108.049H113.092V65.156H495.731V108.049Z" fill="#0F72B5"/>
<path d="M267.948 0.474695H171.645V65.156H267.948V0.474695Z" fill="#1182CF"/>
<path d="M144.68 317.68H56.9226V229.923H144.68V317.68Z" fill="#BBE9E7"/>
<path d="M280.42 317.68H192.663V229.923H280.42V317.68Z" fill="#BBE9E7"/>
<path d="M416.16 317.68H328.403V229.923H416.16V317.68Z" fill="#BBE9E7"/>
<path d="M551.9 317.68H464.143V229.923H551.9V317.68Z" fill="#BBE9E7"/>
<path d="M144.68 472.36H56.9226V384.603H144.68V472.36Z" fill="#BBE9E7"/>
<path d="M280.42 472.36H192.663V384.603H280.42V472.36Z" fill="#BBE9E7"/>
<path d="M416.16 472.36H328.403V384.603H416.16V472.36Z" fill="#BBE9E7"/>
<path d="M551.9 472.36H464.143V384.603H551.9V472.36Z" fill="#BBE9E7"/>
<path d="M144.68 627.039H56.9226V539.281H144.68V627.039Z" fill="#BBE9E7"/>
<path d="M280.42 627.039H192.663V539.281H280.42V627.039Z" fill="#BBE9E7"/>
<path d="M416.16 627.039H328.403V539.281H416.16V627.039Z" fill="#BBE9E7"/>
<path d="M551.9 627.039H464.143V539.281H551.9V627.039Z" fill="#BBE9E7"/>
<path d="M144.68 781.719H56.9226V693.961H144.68V781.719Z" fill="#BBE9E7"/>
<path d="M280.42 781.719H192.663V693.961H280.42V781.719Z" fill="#BBE9E7"/>
<path d="M416.16 781.719H328.403V693.961H416.16V781.719Z" fill="#BBE9E7"/>
<path d="M551.9 781.719H464.143V693.961H551.9V781.719Z" fill="#BBE9E7"/>
<path d="M144.68 936.399H56.9226V848.641H144.68V936.399Z" fill="#BBE9E7"/>
<path d="M280.42 936.399H192.663V848.641H280.42V936.399Z" fill="#BBE9E7"/>
<path d="M416.16 936.399H328.403V848.641H416.16V936.399Z" fill="#BBE9E7"/>
<path d="M551.9 936.399H464.143V848.641H551.9V936.399Z" fill="#BBE9E7"/>
<path d="M144.68 1091.08H56.9226V1003.32H144.68V1091.08Z" fill="#BBE9E7"/>
<path d="M280.42 1091.08H192.663V1003.32H280.42V1091.08Z" fill="#BBE9E7"/>
<path d="M416.16 1091.08H328.403V1003.32H416.16V1091.08Z" fill="#BBE9E7"/>
<path d="M551.9 1091.08H464.143V1003.32H551.9V1091.08Z" fill="#BBE9E7"/>
</svg>
