<svg width="613" height="941" viewBox="0 0 613 941" fill="none" xmlns="http://www.w3.org/2000/svg">
<path d="M0.965332 941H612.369V89.7947H0.965332V941Z" fill="#E06467"/>
<path d="M117.313 42.1347H496.018V89.7947H117.313V42.1347Z" fill="#C25759"/>
<path d="M186.514 42.1347H426.818V0.604027H186.514V42.1347Z" fill="#A64A4C"/>
<path d="M294.412 941H318.922V89.7947H294.412V941Z" fill="#FA7073"/>
<path d="M235.688 187.587H77.0491V166.48H235.688V187.587Z" fill="#BBE9E7"/>
<path d="M235.688 260.437H77.0491V239.332H235.688V260.437Z" fill="#BBE9E7"/>
<path d="M235.688 333.289H77.0491V312.183H235.688V333.289Z" fill="#BBE9E7"/>
<path d="M235.688 406.14H77.0491V385.033H235.688V406.14Z" fill="#BBE9E7"/>
<path d="M235.688 478.991H77.0491V457.885H235.688V478.991Z" fill="#BBE9E7"/>
<path d="M235.688 551.843H77.0491V530.736H235.688V551.843Z" fill="#BBE9E7"/>
<path d="M235.688 624.693H77.0491V603.588H235.688V624.693Z" fill="#BBE9E7"/>
<path d="M235.688 697.544H77.0491V676.437H235.688V697.544Z" fill="#BBE9E7"/>
<path d="M235.688 770.396H77.0491V749.289H235.688V770.396Z" fill="#BBE9E7"/>
<path d="M235.688 843.247H77.0491V822.141H235.688V843.247Z" fill="#BBE9E7"/>
<path d="M536.284 187.587H377.645V166.48H536.284V187.587Z" fill="#BBE9E7"/>
<path d="M536.284 260.437H377.645V239.332H536.284V260.437Z" fill="#BBE9E7"/>
<path d="M536.284 333.289H377.645V312.183H536.284V333.289Z" fill="#BBE9E7"/>
<path d="M536.284 406.14H377.645V385.033H536.284V406.14Z" fill="#BBE9E7"/>
<path d="M536.284 478.991H377.645V457.885H536.284V478.991Z" fill="#BBE9E7"/>
<path d="M536.284 551.843H377.645V530.736H536.284V551.843Z" fill="#BBE9E7"/>
<path d="M536.284 624.693H377.645V603.588H536.284V624.693Z" fill="#BBE9E7"/>
<path d="M536.284 697.544H377.645V676.437H536.284V697.544Z" fill="#BBE9E7"/>
<path d="M536.284 770.396H377.645V749.289H536.284V770.396Z" fill="#BBE9E7"/>
<path d="M536.284 843.247H377.645V822.141H536.284V843.247Z" fill="#BBE9E7"/>
</svg>
