<svg width="422" height="1359" viewBox="0 0 422 1359" fill="none" xmlns="http://www.w3.org/2000/svg">
<path d="M0.602417 1359H421.368V185.299H0.602417V1359Z" fill="#A57E7F"/>
<g opacity="0.100006">
<path opacity="0.100006" d="M421.368 1359H296.773V185.299H421.368V1359Z" fill="black" stroke="#231F20" stroke-width="0.666667" stroke-miterlimit="10"/>
</g>
<path d="M362.814 134.12H59.1556V185.297H362.814V134.12Z" fill="#B58A8B"/>
<path d="M362.815 134.12H193.964L362.815 0.787036V134.12Z" fill="#C99A9B"/>
<path d="M81.6237 266.092H43.4971V227.964H81.6237V266.092Z" fill="#BBE9E7"/>
<path d="M155.837 266.092H117.709V227.964H155.837V266.092Z" fill="#BBE9E7"/>
<path d="M230.049 266.092H191.921V227.964H230.049V266.092Z" fill="#BBE9E7"/>
<path d="M304.262 266.092H266.133V227.964H304.262V266.092Z" fill="#BBE9E7"/>
<path d="M378.474 266.092H340.346V227.964H378.474V266.092Z" fill="#BBE9E7"/>
<path d="M81.6237 365.609H43.4971V327.481H81.6237V365.609Z" fill="#BBE9E7"/>
<path d="M155.837 365.609H117.709V327.481H155.837V365.609Z" fill="#BBE9E7"/>
<path d="M230.049 365.609H191.921V327.481H230.049V365.609Z" fill="#BBE9E7"/>
<path d="M304.262 365.609H266.133V327.481H304.262V365.609Z" fill="#BBE9E7"/>
<path d="M378.474 365.609H340.346V327.481H378.474V365.609Z" fill="#BBE9E7"/>
<path d="M81.6237 465.128H43.4971V427H81.6237V465.128Z" fill="#BBE9E7"/>
<path d="M155.837 465.128H117.709V427H155.837V465.128Z" fill="#BBE9E7"/>
<path d="M230.049 465.128H191.921V427H230.049V465.128Z" fill="#BBE9E7"/>
<path d="M304.262 465.128H266.133V427H304.262V465.128Z" fill="#BBE9E7"/>
<path d="M378.474 465.128H340.346V427H378.474V465.128Z" fill="#BBE9E7"/>
<path d="M155.837 564.645H117.709V526.517H155.837V564.645Z" fill="#BBE9E7"/>
<path d="M230.049 564.645H191.921V526.517H230.049V564.645Z" fill="#BBE9E7"/>
<path d="M304.262 564.645H266.133V526.517H304.262V564.645Z" fill="#BBE9E7"/>
<path d="M378.474 564.645H340.346V526.517H378.474V564.645Z" fill="#BBE9E7"/>
<path d="M155.837 664.163H117.709V626.035H155.837V664.163Z" fill="#BBE9E7"/>
<path d="M230.049 664.163H191.921V626.035H230.049V664.163Z" fill="#BBE9E7"/>
<path d="M304.262 664.163H266.133V626.035H304.262V664.163Z" fill="#BBE9E7"/>
<path d="M378.474 664.163H340.346V626.035H378.474V664.163Z" fill="#BBE9E7"/>
<path d="M155.837 763.681H117.709V725.553H155.837V763.681Z" fill="#BBE9E7"/>
<path d="M230.049 763.681H191.921V725.553H230.049V763.681Z" fill="#BBE9E7"/>
<path d="M304.262 763.681H266.133V725.553H304.262V763.681Z" fill="#BBE9E7"/>
<path d="M378.474 763.681H340.346V725.553H378.474V763.681Z" fill="#BBE9E7"/>
<path d="M155.837 863.199H117.709V825.069H155.837V863.199Z" fill="#BBE9E7"/>
<path d="M230.049 863.199H191.921V825.069H230.049V863.199Z" fill="#BBE9E7"/>
<path d="M304.262 863.199H266.133V825.069H304.262V863.199Z" fill="#BBE9E7"/>
<path d="M378.474 863.199H340.346V825.069H378.474V863.199Z" fill="#BBE9E7"/>
<path d="M155.837 962.716H117.709V924.588H155.837V962.716Z" fill="#BBE9E7"/>
<path d="M230.049 962.716H191.921V924.588H230.049V962.716Z" fill="#BBE9E7"/>
<path d="M304.262 962.716H266.133V924.588H304.262V962.716Z" fill="#BBE9E7"/>
<path d="M378.474 962.716H340.346V924.588H378.474V962.716Z" fill="#BBE9E7"/>
</svg>
