<svg width="3120" height="2080" viewBox="0 0 3120 2080" fill="none" xmlns="http://www.w3.org/2000/svg">
<g clip-path="url(#clip0)">
<path d="M0 2080H3120V-6.19888e-05H0V2080Z" fill="#E1EEB1"/>
<g opacity="0.470001">
<g opacity="0.470001">
<path opacity="0.470001" d="M0 433.561H820.073C802.603 418.31 779.765 409.05 754.752 409.05C736.609 409.05 719.616 413.934 704.975 422.425C691.845 393.843 662.988 373.986 629.475 373.986C624.107 373.986 618.863 374.514 613.777 375.487C613.785 374.986 613.816 374.49 613.816 373.986C613.816 323.034 572.512 281.73 521.56 281.73C488.589 281.73 459.676 299.039 443.363 325.053C429.037 310.505 409.123 301.475 387.092 301.475C384.631 301.475 382.2 301.603 379.797 301.823C380.989 295.303 381.645 288.595 381.645 281.73C381.645 220.439 331.959 170.753 270.667 170.753C223.355 170.753 182.983 200.37 167.016 242.066C155.771 236.519 143.117 233.39 129.731 233.39C84.448 233.39 47.5 269.041 45.4067 313.805C37.9507 311.991 30.1693 311.007 22.156 311.007C14.532 311.007 7.12267 311.906 0 313.553V433.561Z" fill="white"/>
</g>
</g>
<g opacity="0.470001">
<g opacity="0.470001">
<path opacity="0.470001" d="M1836.69 206.496C1840.27 190.609 1854.45 178.74 1871.42 178.74C1877.03 178.74 1882.34 180.044 1887.07 182.361C1889.73 161.796 1907.3 145.905 1928.59 145.905C1935.93 145.905 1942.83 147.8 1948.83 151.117C1961.84 130.592 1984.75 116.965 2010.84 116.965C2041.02 116.965 2066.94 135.188 2078.21 161.229C2084.64 156.092 2092.78 153.013 2101.65 153.013C2118.71 153.013 2133.1 164.388 2137.68 179.964C2140.43 179.172 2143.33 178.74 2146.33 178.74C2159.2 178.74 2170.25 186.555 2174.99 197.7C2182.05 193.472 2190.31 191.037 2199.13 191.037C2212.96 191.037 2225.39 197.001 2234 206.496H1836.69Z" fill="white"/>
</g>
</g>
<g opacity="0.470001">
<g opacity="0.470001">
<path opacity="0.470001" d="M663.408 1110.16C653.766 1095.61 637.255 1086.02 618.498 1086.02C606.382 1086.02 595.203 1090.02 586.206 1096.77C575.72 1074.38 552.994 1058.86 526.632 1058.86C511.012 1058.86 496.672 1064.32 485.391 1073.41C471.57 1054.11 448.968 1041.51 423.411 1041.51C416.507 1041.51 409.826 1042.44 403.466 1044.16C394.903 1001.77 357.44 969.844 312.519 969.844C267.527 969.844 230.019 1001.87 221.534 1044.36C215.088 1042.52 208.29 1041.51 201.25 1041.51C174.158 1041.51 150.502 1056.17 137.74 1077.98C130.419 1073.51 121.818 1070.93 112.612 1070.93C89.0444 1070.93 69.431 1087.82 65.1924 1110.16H663.408Z" fill="white"/>
</g>
</g>
<g opacity="0.470001">
<g opacity="0.470001">
<path opacity="0.470001" d="M2451.9 407.24C2461.55 392.696 2478.06 383.1 2496.82 383.1C2508.93 383.1 2520.11 387.103 2529.11 393.855C2539.59 371.462 2562.32 355.943 2588.68 355.943C2604.3 355.943 2618.64 361.402 2629.92 370.499C2643.74 351.19 2666.34 338.594 2691.9 338.594C2698.81 338.594 2705.49 339.527 2711.85 341.248C2720.41 298.851 2757.87 266.928 2802.79 266.928C2847.79 266.928 2885.29 298.952 2893.78 341.448C2900.22 339.602 2907.02 338.594 2914.06 338.594C2941.16 338.594 2964.81 353.252 2977.57 375.063C2984.89 370.591 2993.5 368.014 3002.7 368.014C3026.27 368.014 3045.88 384.906 3050.12 407.24H2451.9Z" fill="white"/>
</g>
</g>
<g opacity="0.470001">
<g opacity="0.470001">
<path opacity="0.470001" d="M1761.26 601.419C1751.62 586.875 1735.11 577.279 1716.35 577.279C1704.24 577.279 1693.06 581.281 1684.06 588.033C1673.57 565.64 1650.85 550.121 1624.49 550.121C1608.87 550.121 1594.53 555.58 1583.25 564.677C1569.43 545.368 1546.82 532.772 1521.27 532.772C1514.36 532.772 1507.68 533.705 1501.32 535.427C1492.76 493.029 1455.3 461.107 1410.37 461.107C1365.38 461.107 1327.87 493.131 1319.39 535.627C1312.94 533.78 1306.14 532.772 1299.11 532.772C1272.01 532.772 1248.36 547.431 1235.59 569.24C1228.27 564.769 1219.67 562.192 1210.47 562.192C1186.9 562.192 1167.29 579.084 1163.05 601.419H1761.26Z" fill="white"/>
</g>
</g>
<g opacity="0.470001">
<g opacity="0.470001">
<path opacity="0.470001" d="M3120 896.868C3117.21 896.047 3114.27 895.585 3111.21 895.585C3106.3 895.585 3101.65 896.727 3097.52 898.752C3095.19 880.767 3079.83 866.869 3061.21 866.869C3054.79 866.869 3048.75 868.527 3043.51 871.428C3032.13 853.479 3012.09 841.56 2989.27 841.56C2962.88 841.56 2940.21 857.497 2930.36 880.272C2924.74 875.779 2917.62 873.087 2909.86 873.087C2894.94 873.087 2882.35 883.033 2878.35 896.655C2875.94 895.963 2873.41 895.585 2870.79 895.585C2859.53 895.585 2849.86 902.42 2845.72 912.167C2839.54 908.469 2832.33 906.34 2824.61 906.34C2812.52 906.34 2801.65 911.556 2794.12 919.859H3120V896.868Z" fill="white"/>
</g>
</g>
<g opacity="0.100006">
<path opacity="0.100006" d="M1861.81 855.12H1795.77V906.297H1861.81V855.12Z" fill="black" stroke="#231F20" stroke-width="0.666667" stroke-miterlimit="10"/>
</g>
<g opacity="0.100006">
<g opacity="0.100006">
<path opacity="0.100006" d="M1861.81 855.12H1795.77L1861.81 802.97V855.12Z" fill="black"/>
</g>
<g opacity="0.100006">
<path opacity="0.100006" d="M1861.81 855.12H1795.77L1861.81 802.97V855.12Z" stroke="#231F20" stroke-width="0.666667" stroke-miterlimit="10"/>
</g>
</g>
<g opacity="0.100006">
<path opacity="0.100006" d="M1106.07 2080H923.943V1040H1106.07V2080Z" fill="black" stroke="#231F20" stroke-width="0.666667" stroke-miterlimit="10"/>
</g>
<g opacity="0.100006">
<path opacity="0.100006" d="M1064.54 985.049H923.943V1040H1064.54V985.049Z" fill="black" stroke="#231F20" stroke-width="0.666667" stroke-miterlimit="10"/>
</g>
<g opacity="0.100006">
<path opacity="0.100006" d="M993.731 985.049H923.944V942.156H993.731V985.049Z" fill="black" stroke="#231F20" stroke-width="0.666667" stroke-miterlimit="10"/>
</g>
<g opacity="0.100006">
<path opacity="0.100006" d="M765.948 877.475H741.013V942.156H765.948V877.475Z" fill="black" stroke="#231F20" stroke-width="0.666667" stroke-miterlimit="10"/>
</g>
<g opacity="0.100006">
<path opacity="0.100006" d="M591.348 2080H498.752V1471.18H591.348V2080Z" fill="black" stroke="#231F20" stroke-width="0.666667" stroke-miterlimit="10"/>
</g>
<path d="M384.709 2070.67H591.348V2043.09H384.709V2070.67Z" fill="#BBE9E7"/>
<path d="M2483.94 531.263C2466.58 531.263 2456.54 539.433 2456.2 560.369C2455.86 581.305 2453.13 634.412 2453.13 634.412H2482.07L2483.94 545.049V531.263Z" fill="#A6CFCD"/>
<path d="M2483.94 531.263C2483.94 531.263 2506.41 525.816 2515.6 546.923C2524.79 568.029 2531.6 634.412 2531.6 634.412H2482.07L2483.94 531.263Z" fill="#95BAB8"/>
<path d="M2829.13 653.64C2829.13 653.64 2826.24 666.747 2825.05 670.32C2823.85 673.907 2818.75 674.747 2818.75 674.747C2818.75 674.747 2789.48 676.96 2781.13 677.813C2772.8 678.667 2741.03 676.4 2741.03 676.4L2698.75 733.48L2638.49 735.693L2580.8 752.88L2585.91 867.6L2574.32 867.947V888.027L2569.21 892.453V966.667L2564.91 969.16V1198.39H2401.05V980.053L2389.71 970.067L2391.97 756.96L2390.23 756.067L2358.61 739.947L2272.15 738.133L2242.87 679.8C2242.69 679.853 2242.52 679.907 2242.35 679.947C2235.72 681.893 2225.25 682.947 2211.55 682.067C2197.48 681.16 2178.87 676.853 2173.19 676.4C2167.52 675.947 2162.75 673.453 2162.75 673.453C2162.75 673.453 2157.99 658.013 2157.08 652.8C2156.17 647.573 2159.12 647.347 2160.03 647.347C2160.93 647.347 2185.91 647.24 2185.91 647.24C2185.91 647.24 2189.64 641.56 2190.21 641.733C2190.79 641.907 2208.15 642.24 2214.49 643.147C2220.85 644.053 2235.72 654.04 2235.72 654.04H2235.73L2245.39 655.187L2248.2 655.52L2253.99 656.187L2274.97 658.587C2274.97 658.587 2279.31 656.84 2283.85 655.28C2286.93 654.213 2290.11 653.227 2292.12 652.907C2297.11 652.12 2305.51 654.947 2305.51 654.947L2350.84 653.64C2350.84 653.64 2403.77 635.947 2408.2 634.413C2411.45 633.293 2427.15 631.24 2435.29 630.24C2438.24 629.867 2440.2 629.64 2440.2 629.64L2455.4 624.88L2522.01 625.56C2522.01 625.56 2574.32 629.987 2582.27 631.12C2582.93 631.213 2583.64 631.36 2584.36 631.547C2585.87 631.92 2587.47 632.467 2589.07 633.107C2595.77 635.8 2602.47 640.08 2602.47 640.08L2602.64 640.053L2602.84 640.027L2603.15 639.987L2603.24 639.973L2603.63 639.92L2604.16 639.853H2604.19L2605.15 639.72L2605.52 639.667L2606.72 639.507L2607.15 639.453L2607.77 639.373C2615 638.427 2627.41 636.907 2630.49 637.133C2634.92 637.48 2649.05 648.88 2649.05 648.88H2744.37L2743.69 652.28L2752.2 651.427C2752.2 651.427 2762.92 640.533 2767.52 639.693C2772.12 638.84 2799.85 637.987 2800.88 638.493C2801.91 639.013 2803.43 644.12 2803.43 644.12C2803.43 644.12 2821.13 646.667 2825.56 647.853C2829.99 649.053 2829.13 653.64 2829.13 653.64Z" fill="#BBE9E7"/>
<path d="M2522.01 625.56L2500.91 676.4H2468.53L2455.53 625.413L2455.4 624.88L2455.52 624.853L2456.15 624.747L2468.53 622.493V600.2L2506.84 586.973L2508.17 621.707L2522.01 625.56Z" fill="#BBE9E7"/>
<path d="M2522.01 625.56L2500.91 676.4H2468.53L2455.53 625.413L2455.52 624.853L2456.15 624.747L2468.53 669.36H2499.55L2522.01 625.56Z" fill="#95BAB8"/>
<g opacity="0.309998">
<g opacity="0.309998">
<path opacity="0.309998" d="M2471.69 605.05C2471.69 605.05 2473.56 613.135 2475.09 616.028C2476.62 618.922 2478.84 626.411 2480.79 627.772C2482.75 629.135 2488.45 629.986 2491.6 626.667C2494.75 623.348 2499.18 613.986 2501.56 609.986C2503.94 605.986 2505.99 589.475 2505.73 589.475C2505.48 589.475 2471.69 605.05 2471.69 605.05Z" fill="black"/>
</g>
<g opacity="0.309998">
<path opacity="0.309998" d="M2471.69 605.05C2471.69 605.05 2473.56 613.135 2475.09 616.028C2476.62 618.922 2478.84 626.411 2480.79 627.772C2482.75 629.135 2488.45 629.986 2491.6 626.667C2494.75 623.348 2499.18 613.986 2501.56 609.986C2503.94 605.986 2505.99 589.475 2505.73 589.475C2505.48 589.475 2471.69 605.05 2471.69 605.05Z" stroke="#231F20" stroke-width="0.666667" stroke-miterlimit="10"/>
</g>
</g>
<path d="M2508.12 588.626C2505.73 593.386 2497.73 604.626 2495.52 609.213C2493.31 613.813 2482.44 614 2477.99 612.626C2473.53 611.253 2467.27 602.413 2466.75 600.2C2466.24 597.988 2463.85 583.173 2464.03 567.013C2464.03 566.813 2464.03 566.626 2464.04 566.44C2464.08 564.773 2464.2 563.186 2464.43 561.68C2464.52 561 2464.63 560.346 2464.76 559.706C2464.87 559.2 2464.97 558.693 2465.11 558.213C2467.75 547.6 2474.87 541.76 2482.07 541.306C2504.03 539.893 2508.63 553.386 2509.31 560.026C2509.99 566.666 2510.49 583.853 2508.12 588.626Z" fill="#BBE9E7"/>
<path d="M2471.4 593.787L2475.32 590.951C2475.32 590.951 2477.3 588.34 2478.72 588C2480.14 587.659 2486.16 587.546 2486.72 588C2487.29 588.454 2489.45 590.935 2489.73 590.744C2490.01 590.554 2493.25 592.142 2493.59 593.787H2471.4Z" fill="#95BAB8"/>
<path d="M2487.57 577.613C2487.57 577.733 2484.35 580.28 2481.33 580.907C2478.32 581.533 2474.64 578.693 2473.96 577.733C2473.28 576.76 2475.77 567.467 2475.77 567.467C2475.77 567.467 2469.48 567.92 2468 567.92C2466.52 567.92 2464.04 566.44 2464.04 566.44C2464.08 564.773 2464.2 563.187 2464.43 561.68H2475.95C2475.95 561.68 2475.49 560.253 2472.76 559.973C2471 559.787 2467.23 559.733 2464.76 559.707C2464.87 559.2 2464.97 558.693 2465.11 558.213C2466.21 557.773 2467.63 557.413 2469.25 557.413C2473.33 557.413 2476.4 557.813 2477.87 558.84C2479.35 559.853 2479.29 563.493 2479.12 564.733C2478.95 565.987 2474.75 572.853 2476.91 576.08C2476.91 576.08 2478.49 577.107 2481.51 577.613C2484.51 578.133 2487.57 577.507 2487.57 577.613Z" fill="#95BAB8"/>
<path d="M2486.95 564.227C2486.53 561.013 2490.87 558.554 2492 558.213C2493.13 557.873 2502.61 558.497 2503.23 558.61C2503.86 558.723 2506.07 559.985 2506.19 561.17C2506.19 561.17 2502.67 560.255 2499.03 560.311C2495.4 560.369 2491.89 561.617 2490.92 562.411C2490.92 562.411 2500.17 561.447 2505.05 563.262C2509.93 565.078 2509.87 566.61 2509.87 566.61C2509.87 566.61 2503.92 567.915 2503.12 567.971C2502.33 568.029 2496.03 569.05 2492.34 568.369C2488.65 567.689 2487.17 565.929 2486.95 564.227Z" fill="#95BAB8"/>
<path d="M2435.09 968.709L2451.38 965.378L2451.16 965.672C2448.16 936.92 2446.49 908.05 2445.42 879.16C2444.99 864.71 2444.75 850.257 2444.78 835.794C2444.81 821.326 2445.21 806.877 2445.73 792.433C2446.33 777.993 2446.99 763.558 2447.76 749.13C2448.51 734.701 2449.34 720.277 2450.31 705.862C2451.29 691.448 2452.25 677.034 2453.34 662.628C2454.48 648.225 2455.22 640.5 2456.53 626.112L2452.29 705.978C2450.88 734.828 2449.33 763.67 2448.36 792.529C2447.92 806.957 2447.33 821.385 2447.26 835.808C2447.15 850.233 2447.32 864.67 2447.66 879.098C2447.94 893.53 2448.43 907.96 2449.11 922.381C2449.84 936.798 2450.56 951.226 2451.7 965.62L2451.72 965.872L2451.48 965.912L2435.09 968.709Z" fill="#95BAB8"/>
<path d="M2447.6 778.408L2444.99 828.804L2442.21 879.186L2439.42 929.561C2438.65 946.344 2438.23 963.157 2438.01 979.958L2437.99 981.657L2436.35 981.08C2433.67 980.136 2430.7 979.49 2427.79 979.069C2424.86 978.652 2421.89 978.422 2418.93 978.472C2415.97 978.517 2413 978.714 2410.08 979.225C2407.15 979.656 2404.28 980.433 2401.44 981.281L2401.25 980.625L2399.97 979.461C2399.72 955.452 2399.75 932.066 2400.14 908.069C2400.53 884.074 2401.21 860.081 2402.23 836.101C2403.27 812.124 2404.75 788.16 2406.82 764.245L2407.64 755.281C2407.91 752.293 2408.19 749.306 2408.57 746.326L2410.67 728.446L2413.29 710.636C2414.37 704.732 2415.57 698.852 2416.71 692.965C2412.17 716.537 2409.99 740.46 2408.21 764.358C2406.41 788.268 2405.19 812.221 2404.42 836.188C2403.57 860.153 2402.92 884.126 2402.64 908.106C2402.33 932.085 2402.25 956.074 2402.34 980.044L2400.66 978.832C2403.62 977.954 2406.62 977.157 2409.68 976.717C2412.73 976.198 2415.83 976 2418.91 975.965C2422.01 975.926 2425.09 976.176 2428.15 976.622C2431.23 977.088 2434.21 977.726 2437.24 978.808L2435.57 979.929C2435.85 963.092 2436.33 946.273 2437.17 929.452C2438.2 912.652 2439.4 895.878 2440.51 879.09L2443.97 828.742L2447.6 778.408Z" fill="#95BAB8"/>
<path d="M2440.2 629.64L2436.23 661.987L2435.29 630.24C2438.24 629.867 2440.2 629.64 2440.2 629.64Z" fill="#95BAB8"/>
<path d="M2391.97 756.96C2391.97 756.96 2401.96 654.837 2407.86 640.085C2407.86 640.085 2394.52 670.542 2389.52 756.106L2391.97 756.96Z" fill="#95BAB8"/>
<path d="M2242.87 679.8C2242.69 679.853 2242.52 679.907 2242.35 679.947C2235.72 681.893 2225.25 682.947 2211.55 682.067C2197.48 681.16 2178.87 676.853 2173.19 676.4C2167.52 675.947 2162.75 673.453 2162.75 673.453C2162.75 673.453 2157.99 658.013 2157.08 652.8C2156.17 647.573 2159.12 647.347 2160.03 647.347C2160.93 647.347 2185.91 647.24 2185.91 647.24C2185.91 647.24 2189.64 641.56 2190.21 641.733C2190.79 641.907 2208.15 642.24 2214.49 643.147C2220.85 644.053 2235.72 654.04 2235.72 654.04H2235.73V654.067L2242.87 679.8Z" fill="#95BAB8"/>
<path d="M2360.54 667.319C2360.54 667.319 2375.74 686.496 2396.51 698.979L2394.92 712.255C2394.92 712.255 2366.01 682.411 2360.54 667.319Z" fill="#95BAB8"/>
<path d="M2392.2 736.533L2390.23 756.067L2358.61 739.947L2272.15 738.133L2242.87 679.8C2242.69 679.853 2235.73 654.067 2235.73 654.067C2236.16 654.96 2249.72 683.6 2252.51 687.173C2255.35 690.813 2264.08 713.507 2295.63 718.84C2295.63 718.84 2279.85 700.907 2276 686.04C2276 686.04 2289.61 706.24 2311.07 716.8C2332.51 727.347 2349.41 726.44 2349.41 726.44C2349.41 726.44 2312.65 674.24 2310.49 663.92C2310.49 663.92 2340.91 698.187 2345.21 700.453C2349.53 702.72 2392.2 736.533 2392.2 736.533Z" fill="#95BAB8"/>
<path d="M2253.99 656.187L2256.6 678.32L2245.39 655.187L2248.2 655.52L2253.99 656.187Z" fill="#95BAB8"/>
<path d="M2301.29 680.36C2280.76 669.587 2274.97 658.587 2274.97 658.587C2274.97 658.587 2279.31 656.84 2283.85 655.28C2287.73 664.96 2300.84 679.84 2301.29 680.36Z" fill="#95BAB8"/>
<path d="M2194.18 644C2194.18 644 2214.78 644.851 2218.35 646.497C2221.93 648.141 2236.27 656.172 2236.27 656.172L2237.81 662.199C2237.81 662.199 2226.92 662.213 2221.13 658.752C2215.35 655.291 2210.01 648.596 2207.92 648.199C2205.82 647.801 2195.32 647.688 2194.18 646.951C2193.05 646.213 2194.18 644 2194.18 644Z" fill="#BBE9E7"/>
<path d="M2192.94 660.908C2192.94 660.908 2206.55 661.76 2209.45 662.497C2212.34 663.234 2214.67 666.412 2214.84 666.412C2215.01 666.412 2228.62 666.525 2230.21 667.83C2231.8 669.134 2232.6 674.412 2231.91 675.093C2231.23 675.773 2210.47 675.433 2204.79 674.412C2199.12 673.39 2194.41 667.093 2192.94 660.908Z" fill="#BBE9E7"/>
<path d="M2549.86 712.307C2549.42 712.209 2505.97 702.258 2483.26 690.286C2460.31 678.182 2453.82 663.999 2453.53 663.342L2454.13 660.283C2454.2 660.437 2462.43 676.283 2484.51 687.926C2506.9 699.737 2550.02 709.609 2550.45 709.707L2549.86 712.307Z" fill="#95BAB8"/>
<path d="M2452.48 685.22L2488.71 721.22C2488.71 721.22 2508.06 722.921 2506.47 721.787C2504.88 720.652 2452.91 683.433 2452.91 683.433L2452.48 685.22Z" fill="#95BAB8"/>
<path d="M2500.91 676.397H2533.93L2501.63 674.648L2500.91 676.397Z" fill="#95BAB8"/>
<path d="M2512.6 676.397C2512.6 676.397 2524.91 640.503 2545.42 627.585C2545.42 627.585 2528.14 646.507 2514.98 675.523L2512.6 676.397Z" fill="#95BAB8"/>
<path d="M2607.77 639.373C2607.77 639.373 2543.57 678.893 2533.93 685.133C2524.28 691.373 2502.97 697.28 2502.97 697.28L2533.93 676.4C2543.01 660.106 2573.47 638.813 2584.36 631.546C2585.87 631.92 2587.47 632.466 2589.07 633.106C2582 637.56 2564.19 648.813 2557.08 653.586C2548.12 659.6 2529.16 684.573 2529.01 685.133C2529.77 685.133 2602.47 640.08 2602.47 640.08L2602.64 640.053L2602.84 640.026L2603.15 639.986L2603.24 639.973L2603.63 639.92L2604.16 639.853H2604.19L2605.15 639.72L2605.52 639.666L2606.72 639.506L2607.15 639.453L2607.77 639.373Z" fill="#95BAB8"/>
<path d="M2829.13 653.64C2829.13 653.64 2826.24 666.747 2825.05 670.32C2823.85 673.907 2818.75 674.747 2818.75 674.747C2818.75 674.747 2789.48 676.96 2781.13 677.813C2772.8 678.667 2741.03 676.4 2741.03 676.4L2698.75 733.48L2638.49 735.693L2580.8 752.88L2585.91 867.6L2574.32 867.947L2562.19 714.973C2562.19 714.973 2489.15 753.2 2451.23 714.76C2452.4 714.973 2484.63 720.72 2529.01 712.253C2574.21 703.627 2646.39 654.067 2646.39 654.067L2620.73 689.787L2692.68 653.027L2650.01 722.173C2650.01 722.173 2688.83 725.413 2695.63 724.053C2702.44 722.693 2743.69 652.28 2743.69 652.28L2752.2 651.427C2752.2 651.427 2762.92 640.533 2767.52 639.693C2772.12 638.84 2799.85 637.987 2800.88 638.493C2801.91 639.013 2803.43 644.12 2803.43 644.12C2803.43 644.12 2821.13 646.667 2825.56 647.853C2829.99 649.053 2829.13 653.64 2829.13 653.64Z" fill="#95BAB8"/>
<path d="M2455.4 768.539L2522.92 722.178L2554.01 713.618L2565.65 856.708L2575.86 855.858L2574.32 867.947L2567.01 869.304L2568.2 879.007L2536.71 895.178L2534.95 854.326C2534.95 854.326 2530.41 907.887 2504.76 946.922C2479.12 985.958 2445.99 996.624 2445.99 996.624C2445.99 996.624 2483.43 936.936 2500.23 900.624C2517.02 864.312 2523.6 821.646 2523.6 821.646C2523.6 821.646 2504.76 861.135 2459.83 888.142C2459.83 888.142 2516.11 810.752 2524.06 790.326C2532 769.9 2534.95 752.199 2534.95 752.199C2534.95 752.199 2522.24 775.802 2478.21 788.284C2478.21 788.284 2524.74 753.106 2540.17 727.46C2540.17 727.46 2537.9 838.894 2537.9 850.468C2537.9 862.042 2539.04 888.595 2539.04 888.595L2558.55 878.156L2546.98 719.518L2526.33 725.646C2526.33 725.646 2507.49 745.844 2455.4 768.539Z" fill="#95BAB8"/>
<path d="M2732.47 648.88L2706.41 674.24L2724.24 648.88H2732.47Z" fill="#95BAB8"/>
<path d="M2753.73 657.447C2753.73 657.447 2765.53 645.532 2769.62 643.489C2773.7 641.447 2797.42 641.107 2797.98 641.56C2798.55 642.015 2798.89 644.851 2794.01 645.532C2789.13 646.213 2781.08 646.553 2779.26 647.915C2777.45 649.277 2773.36 655.291 2767.92 656.993C2762.47 658.696 2753.73 657.447 2753.73 657.447Z" fill="#BBE9E7"/>
<path d="M2752.03 669.248C2754.35 666.191 2765.53 666.525 2772.91 666.525C2780.28 666.525 2785.28 667.547 2791.52 667.887C2797.76 668.227 2791.29 673.333 2787.43 673.333C2783.57 673.333 2772.79 674.695 2766.33 674.241C2759.86 673.787 2747.38 675.376 2752.03 669.248Z" fill="#BBE9E7"/>
<path d="M2401.05 1002.07L2441.22 1018.3L2444.01 967.071L2442.26 967.348L2438.61 1012.62L2401.05 1002.07Z" fill="#95BAB8"/>
<path d="M2569.21 892.453V947.613C2542.76 979.226 2494.49 994.586 2494.49 994.586C2494.49 994.586 2516.8 973.986 2530.41 956.96C2544.03 939.946 2569.21 892.453 2569.21 892.453Z" fill="#95BAB8"/>
<path d="M2564.91 969.16V973.173C2554.84 977.413 2541.23 983.347 2522.92 991.627C2478.2 1011.87 2424.95 1040.76 2401.05 1053.99V1047.24L2564.91 969.16Z" fill="#95BAB8"/>
<path d="M2564.91 969.16V973.173C2554.84 977.413 2541.23 983.347 2522.92 991.627C2478.2 1011.87 2424.95 1040.76 2401.05 1053.99V1047.24L2564.91 969.16Z" fill="#95BAB8"/>
<path d="M2440.16 1030.35V1198.39H2442.83V1029.07L2440.16 1030.35Z" fill="#95BAB8"/>
<path d="M2418.35 1040.82V1198.39H2421.01V1039.54L2418.35 1040.82Z" fill="#95BAB8"/>
<path d="M2461.97 1019.87V1198.39H2464.64V1018.59L2461.97 1019.87Z" fill="#95BAB8"/>
<path d="M2527.4 988.449V1198.39H2530.07V987.169L2527.4 988.449Z" fill="#95BAB8"/>
<path d="M2483.77 1009.4V1198.39H2486.44V1008.12L2483.77 1009.4Z" fill="#95BAB8"/>
<path d="M2549.21 977.974V1198.39H2551.88V976.693L2549.21 977.974Z" fill="#95BAB8"/>
<path d="M2505.59 998.925V1198.39H2508.25V997.645L2505.59 998.925Z" fill="#95BAB8"/>
<path d="M2575.8 1198.39H2390.16L2370.75 1212.11V1225.39H2595.21V1212.11L2575.8 1198.39Z" fill="#A6CFCD"/>
<path d="M2615.29 1225.39H2350.67V1368.14H2615.29V1225.39Z" fill="#BBE9E7"/>
<g opacity="0.100006">
<path opacity="0.100006" d="M2615.29 1333.65H2350.67V1368.14H2615.29V1333.65Z" fill="black" stroke="#231F20" stroke-width="0.666667" stroke-miterlimit="10"/>
</g>
<g opacity="0.100006">
<path opacity="0.100006" d="M2595.21 1225.39H2370.75V1212.11H2595.21V1225.39Z" fill="black" stroke="#231F20" stroke-width="0.666667" stroke-miterlimit="10"/>
</g>
<path d="M2241.37 1581.39L1630.2 2080H1358.77L2132.92 1448.44L2158.09 1479.31L2241.37 1581.39Z" fill="#D4E6E3"/>
<g opacity="0.100006">
<g opacity="0.100006">
<path opacity="0.100006" d="M2241.37 1581.39L1630.2 2080H1421.79L2158.09 1479.31L2241.37 1581.39Z" fill="black"/>
</g>
<g opacity="0.100006">
<path opacity="0.100006" d="M2241.37 1581.39L1630.2 2080H1421.79L2158.09 1479.31L2241.37 1581.39Z" stroke="#231F20" stroke-width="0.666667" stroke-miterlimit="10"/>
</g>
</g>
<path d="M2842.92 1577.39H2123.04V1405.81H2842.92V1577.39Z" fill="#DCEFED"/>
<g opacity="0.100006">
<path opacity="0.100006" d="M2842.92 1577.39H2123.04V1479.31H2842.92V1577.39Z" fill="black" stroke="#231F20" stroke-width="0.666667" stroke-miterlimit="10"/>
</g>
<path d="M1953.39 1780.28H1888.03V1569.9H1953.39V1780.28Z" fill="#DCEFED"/>
<g opacity="0.100006">
<path opacity="0.100006" d="M1953.39 1780.28H1933.53V1569.9H1953.39V1780.28Z" fill="black" stroke="#231F20" stroke-width="0.666667" stroke-miterlimit="10"/>
</g>
<path d="M1680.71 1990.67H1615.35V1780.28H1680.71V1990.67Z" fill="#DCEFED"/>
<g opacity="0.100006">
<path opacity="0.100006" d="M1680.71 1990.67H1660.28V1780.28H1680.71V1990.67Z" fill="black" stroke="#231F20" stroke-width="0.666667" stroke-miterlimit="10"/>
</g>
<path d="M3120 1734.67V2080H1462.16C1462.16 2080 1500.96 2018.59 1539.77 2004.28C1578.58 1989.99 1621.48 1967.52 1656.2 1920.53C1690.92 1873.56 1793.05 1861.31 1831.85 1842.92C1870.67 1824.53 1874.75 1746.92 1923.77 1701.99C1972.8 1657.05 2021.81 1640.71 2054.49 1585.56C2087.17 1530.41 2162.75 1518.16 2193.68 1448.71C2207.89 1416.79 2242.21 1397.19 2275.15 1385.33C2313.85 1371.4 2350.67 1368.15 2350.67 1368.15H2615.29C2681.79 1368.15 2761.21 1422.16 2808.2 1458.92C2855.17 1495.69 2869.48 1524.28 2900.12 1540.63C2930.75 1556.96 3024.71 1599.85 3039.01 1644.8C3053.31 1689.73 3120 1734.67 3120 1734.67Z" fill="#B0CC3E"/>
<path d="M703.346 2080H271.306H-0.000244141V1617.99C-0.000244141 1617.99 39.5198 1598.84 90.5864 1676.96C141.64 1755.09 185.56 1769.39 240.708 1808.2C295.853 1847.01 338.746 1837.65 357.133 1888.29C375.52 1938.92 413.64 1989.99 488.026 2016.53C562.413 2043.09 715.6 2080 703.346 2080Z" fill="#B0CC3E"/>
<g opacity="0.100006">
<g opacity="0.100006">
<path opacity="0.100006" d="M3120 1734.67V2080H3012.28C3009.88 2075 3007.6 2069.96 3005.35 2065C2989.01 2029 2970.52 1992.39 2939.8 1967.51C2914.17 1946.77 2880.72 1934.77 2861.53 1907.95C2857.39 1902.13 2853.97 1895.59 2853.03 1888.49C2851.81 1879.25 2854.87 1870.04 2856.08 1860.8C2859.73 1832.87 2846.35 1805.24 2828.64 1783.33C2810.93 1761.43 2788.83 1743.45 2770.48 1722.09C2765.08 1715.8 2759.69 1707.85 2761.87 1699.85C2765.97 1684.73 2788.24 1688.01 2802.63 1694.21C2817.03 1700.41 2840.03 1701.77 2842.19 1686.25C2842.73 1682.29 2841.45 1678.33 2839.89 1674.65C2824.08 1637.33 2782.73 1619.4 2746.79 1600.67C2719.39 1586.4 2693.21 1569.77 2668.65 1551.03C2662.29 1546.17 2655.76 1540.8 2653.04 1533.28C2649.76 1524.19 2652.79 1514.15 2652.32 1504.49C2650.81 1472.65 2613.56 1455.31 2581.72 1453.47C2549.89 1451.61 2515.76 1457.49 2487.75 1442.28C2474.41 1435.04 2463.84 1423.61 2450.97 1415.59C2402.72 1385.47 2321.08 1416.2 2275.15 1385.33C2313.85 1371.4 2350.67 1368.15 2350.67 1368.15H2615.29C2681.79 1368.15 2761.21 1422.16 2808.2 1458.92C2855.17 1495.69 2869.48 1524.28 2900.12 1540.63C2930.75 1556.96 3024.71 1599.85 3039.01 1644.8C3053.31 1689.73 3120 1734.67 3120 1734.67Z" fill="black"/>
</g>
<g opacity="0.100006">
<path opacity="0.100006" d="M3120 1734.67V2080H3012.28C3009.88 2075 3007.6 2069.96 3005.35 2065C2989.01 2029 2970.52 1992.39 2939.8 1967.51C2914.17 1946.77 2880.72 1934.77 2861.53 1907.95C2857.39 1902.13 2853.97 1895.59 2853.03 1888.49C2851.81 1879.25 2854.87 1870.04 2856.08 1860.8C2859.73 1832.87 2846.35 1805.24 2828.64 1783.33C2810.93 1761.43 2788.83 1743.45 2770.48 1722.09C2765.08 1715.8 2759.69 1707.85 2761.87 1699.85C2765.97 1684.73 2788.24 1688.01 2802.63 1694.21C2817.03 1700.41 2840.03 1701.77 2842.19 1686.25C2842.73 1682.29 2841.45 1678.33 2839.89 1674.65C2824.08 1637.33 2782.73 1619.4 2746.79 1600.67C2719.39 1586.4 2693.21 1569.77 2668.65 1551.03C2662.29 1546.17 2655.76 1540.8 2653.04 1533.28C2649.76 1524.19 2652.79 1514.15 2652.32 1504.49C2650.81 1472.65 2613.56 1455.31 2581.72 1453.47C2549.89 1451.61 2515.76 1457.49 2487.75 1442.28C2474.41 1435.04 2463.84 1423.61 2450.97 1415.59C2402.72 1385.47 2321.08 1416.2 2275.15 1385.33C2313.85 1371.4 2350.67 1368.15 2350.67 1368.15H2615.29C2681.79 1368.15 2761.21 1422.16 2808.2 1458.92C2855.17 1495.69 2869.48 1524.28 2900.12 1540.63C2930.75 1556.96 3024.71 1599.85 3039.01 1644.8C3053.31 1689.73 3120 1734.67 3120 1734.67Z" stroke="#231F20" stroke-width="0.666667" stroke-miterlimit="10"/>
</g>
</g>
<g opacity="0.100006">
<g opacity="0.100006">
<path opacity="0.100006" d="M2792.52 2080H1696.64C1706.96 2055.69 1737.2 2029.24 1754.17 2016.95C1784.95 1994.65 1821.89 1982.43 1853.88 1961.93C1933.67 1910.83 1973.45 1815.43 2044.53 1752.79C2057.69 1741.19 2072.08 1730.56 2082.24 1716.25C2092.73 1701.45 2098.11 1683.57 2108.09 1668.41C2117.67 1653.89 2131.47 1642.19 2147.36 1635.09C2155.69 1631.37 2165.23 1628.91 2173.89 1631.76C2190.25 1637.15 2195.39 1658.11 2193.41 1675.2C2190.15 1703.44 2174.97 1729.51 2173.49 1757.89C2171.91 1788.09 2186.03 1817.97 2181.69 1847.91C2179.49 1863.11 2172.64 1877.24 2169.09 1892.2C2165.55 1907.15 2165.96 1924.55 2176.36 1935.85C2194.8 1955.91 2227.92 1943.72 2251.23 1929.63C2274.53 1915.52 2305.68 1900.92 2326.64 1918.31C2343.59 1932.36 2342.28 1959.32 2355.67 1976.8C2381.95 2011.13 2439.63 1987.35 2478.01 2007.23C2490.97 2013.95 2502.04 2025.83 2516.59 2026.93C2538.45 2028.61 2553.44 2005.91 2562.6 1985.99C2571.76 1966.07 2584.29 1942.73 2606.17 1941.21C2629.33 1939.61 2644.81 1963.24 2660.07 1980.75C2686.87 2011.52 2725.37 2028.93 2759.08 2051.92C2770.91 2059.99 2782.48 2069.4 2792.52 2080Z" fill="black"/>
</g>
<g opacity="0.100006">
<path opacity="0.100006" d="M2792.52 2080H1696.64C1706.96 2055.69 1737.2 2029.24 1754.17 2016.95C1784.95 1994.65 1821.89 1982.43 1853.88 1961.93C1933.67 1910.83 1973.45 1815.43 2044.53 1752.79C2057.69 1741.19 2072.08 1730.56 2082.24 1716.25C2092.73 1701.45 2098.11 1683.57 2108.09 1668.41C2117.67 1653.89 2131.47 1642.19 2147.36 1635.09C2155.69 1631.37 2165.23 1628.91 2173.89 1631.76C2190.25 1637.15 2195.39 1658.11 2193.41 1675.2C2190.15 1703.44 2174.97 1729.51 2173.49 1757.89C2171.91 1788.09 2186.03 1817.97 2181.69 1847.91C2179.49 1863.11 2172.64 1877.24 2169.09 1892.2C2165.55 1907.15 2165.96 1924.55 2176.36 1935.85C2194.8 1955.91 2227.92 1943.72 2251.23 1929.63C2274.53 1915.52 2305.68 1900.92 2326.64 1918.31C2343.59 1932.36 2342.28 1959.32 2355.67 1976.8C2381.95 2011.13 2439.63 1987.35 2478.01 2007.23C2490.97 2013.95 2502.04 2025.83 2516.59 2026.93C2538.45 2028.61 2553.44 2005.91 2562.6 1985.99C2571.76 1966.07 2584.29 1942.73 2606.17 1941.21C2629.33 1939.61 2644.81 1963.24 2660.07 1980.75C2686.87 2011.52 2725.37 2028.93 2759.08 2051.92C2770.91 2059.99 2782.48 2069.4 2792.52 2080Z" stroke="#231F20" stroke-width="0.666667" stroke-miterlimit="10"/>
</g>
</g>
<g opacity="0.100006">
<g opacity="0.100006">
<path opacity="0.100006" d="M703.346 2080H271.306C257.374 2061.11 246.946 2038.75 227.72 2025.43C218.986 2019.39 208.453 2015.2 202.333 2006.52C196.213 1997.83 198.533 1982.31 209.053 1980.79C213.84 1980.11 219 1982.53 223.4 1980.55C229.786 1977.67 229.346 1968.37 226.666 1961.92C218.626 1942.57 200.48 1929.2 181.48 1920.39C162.48 1911.57 141.973 1906.36 122.96 1897.56C112.506 1892.73 102.106 1886.4 96.3464 1876.43C90.5864 1866.45 91.1198 1852.08 100.226 1845.03C109.186 1838.08 121.853 1840.53 133.173 1839.93C144.48 1839.32 158.053 1830.75 154.708 1819.93C153.52 1816.07 150.386 1813.19 147.346 1810.52C118.106 1784.97 85.4131 1762.91 60.5731 1733.05C46.5731 1716.23 35.3331 1697.2 20.8665 1680.77C14.6265 1673.68 7.70776 1667.11 -0.000244141 1661.61V1617.99C-0.000244141 1617.99 39.5198 1598.84 90.5864 1676.96C141.64 1755.09 185.56 1769.39 240.708 1808.2C295.853 1847.01 338.746 1837.65 357.133 1888.29C375.52 1938.92 413.64 1989.99 488.026 2016.53C562.413 2043.09 715.6 2080 703.346 2080Z" fill="black"/>
</g>
<g opacity="0.100006">
<path opacity="0.100006" d="M703.346 2080H271.306C257.374 2061.11 246.946 2038.75 227.72 2025.43C218.986 2019.39 208.453 2015.2 202.333 2006.52C196.213 1997.83 198.533 1982.31 209.053 1980.79C213.84 1980.11 219 1982.53 223.4 1980.55C229.786 1977.67 229.346 1968.37 226.666 1961.92C218.626 1942.57 200.48 1929.2 181.48 1920.39C162.48 1911.57 141.973 1906.36 122.96 1897.56C112.506 1892.73 102.106 1886.4 96.3464 1876.43C90.5864 1866.45 91.1198 1852.08 100.226 1845.03C109.186 1838.08 121.853 1840.53 133.173 1839.93C144.48 1839.32 158.053 1830.75 154.708 1819.93C153.52 1816.07 150.386 1813.19 147.346 1810.52C118.106 1784.97 85.4131 1762.91 60.5731 1733.05C46.5731 1716.23 35.3331 1697.2 20.8665 1680.77C14.6265 1673.68 7.70776 1667.11 -0.000244141 1661.61V1617.99C-0.000244141 1617.99 39.5198 1598.84 90.5864 1676.96C141.64 1755.09 185.56 1769.39 240.708 1808.2C295.853 1847.01 338.746 1837.65 357.133 1888.29C375.52 1938.92 413.64 1989.99 488.026 2016.53C562.413 2043.09 715.6 2080 703.346 2080Z" stroke="#231F20" stroke-width="0.666667" stroke-miterlimit="10"/>
</g>
</g>
</g>
<defs>
<clipPath id="clip0">
<rect width="3120" height="2080" fill="white"/>
</clipPath>
</defs>
</svg>
