<svg width="846" height="846" viewBox="0 0 846 846" fill="none" xmlns="http://www.w3.org/2000/svg">
<path d="M845.426 423.184C845.426 656.371 656.392 845.404 423.206 845.404C190.019 845.404 0.985596 656.371 0.985596 423.184C0.985596 189.999 190.019 0.964324 423.206 0.964324C656.392 0.964324 845.426 189.999 845.426 423.184Z" fill="#FEFDE5"/>
<path d="M825.852 423.184C825.852 645.559 645.581 825.83 423.206 825.83C200.83 825.83 20.5596 645.559 20.5596 423.184C20.5596 200.81 200.83 20.5389 423.206 20.5389C645.581 20.5389 825.852 200.81 825.852 423.184Z" fill="#FEFDD5"/>
<path d="M806.617 423.184C806.617 634.936 634.959 806.596 423.205 806.596C211.453 806.596 39.7946 634.936 39.7946 423.184C39.7946 211.432 211.453 39.7722 423.205 39.7722C634.959 39.7722 806.617 211.432 806.617 423.184Z" fill="#FEFCC6"/>
<path d="M784.829 423.184C784.829 622.904 622.925 784.808 423.205 784.808C223.485 784.808 61.5813 622.904 61.5813 423.184C61.5813 223.464 223.485 61.5604 423.205 61.5604C622.925 61.5604 784.829 223.464 784.829 423.184Z" fill="#FEFBB8"/>
</svg>
